<svg width="53" height="53" viewBox="0 0 53 53" fill="none" xmlns="http://www.w3.org/2000/svg">
<path d="M39.8633 14.7748C39.8633 14.5904 39.8264 14.4059 39.7895 14.2583C39.5312 13.0777 38.3875 12.266 37.17 12.4504C35.9893 12.5611 35.1038 13.5942 35.1038 14.7748V20.6411C35.1038 20.9363 35.1038 20.9363 34.8087 20.9363H18.1691C17.9477 20.9363 17.8739 20.8625 17.8739 20.6411C17.8739 18.6857 17.8739 16.7303 17.8739 14.7748C17.9108 13.5204 16.8778 12.4504 15.6234 12.4136C15.5865 12.4136 15.5496 12.4136 15.5127 12.4136C14.2213 12.3767 13.1514 13.4097 13.1514 14.701C13.1514 14.7379 13.1514 14.7748 13.1514 14.7748V38.24C13.1514 38.6458 13.2621 39.0516 13.4466 39.3837C14 40.3061 15.1068 40.7857 16.1399 40.4905C17.1729 40.2323 17.8739 39.3099 17.8739 38.24C17.8739 35.9894 17.8739 33.7388 17.8739 31.4882C17.8739 31.193 17.8739 31.193 18.1691 31.193H34.8087C35.1038 31.193 35.1038 31.193 35.1038 31.4882V38.2031C35.1038 38.3506 35.1038 38.4613 35.1407 38.6089C35.3621 39.9002 36.6165 40.7488 37.871 40.5274C38.9778 40.343 39.8264 39.3468 39.8264 38.2031C39.8633 30.4182 39.8633 22.5965 39.8633 14.7748ZM34.8825 27.688C29.3113 27.688 23.7402 27.688 18.1691 27.688C17.9846 27.688 17.9108 27.6511 17.9108 27.4298C17.9108 26.5443 17.9108 25.6957 17.9108 24.8102C17.9108 24.5889 17.9846 24.552 18.1691 24.552C20.9731 24.552 23.7402 24.552 26.5442 24.552H34.8825C35.1776 24.552 35.1776 24.552 35.1776 24.8471C35.1776 25.6957 35.1776 26.5812 35.1776 27.4298C35.1407 27.6511 35.0669 27.688 34.8825 27.688ZM39.8633 14.7748C39.8633 14.5904 39.8264 14.4059 39.7895 14.2583C39.5312 13.0777 38.3875 12.266 37.17 12.4504C35.9893 12.5611 35.1038 13.5942 35.1038 14.7748V20.6411C35.1038 20.9363 35.1038 20.9363 34.8087 20.9363H18.1691C17.9477 20.9363 17.8739 20.8625 17.8739 20.6411C17.8739 18.6857 17.8739 16.7303 17.8739 14.7748C17.9108 13.5204 16.8778 12.4504 15.6234 12.4136C15.5865 12.4136 15.5496 12.4136 15.5127 12.4136C14.2213 12.3767 13.1514 13.4097 13.1514 14.701C13.1514 14.7379 13.1514 14.7748 13.1514 14.7748V38.24C13.1514 38.6458 13.2621 39.0516 13.4466 39.3837C14 40.3061 15.1068 40.7857 16.1399 40.4905C17.1729 40.2323 17.8739 39.3099 17.8739 38.24C17.8739 35.9894 17.8739 33.7388 17.8739 31.4882C17.8739 31.193 17.8739 31.193 18.1691 31.193H34.8087C35.1038 31.193 35.1038 31.193 35.1038 31.4882V38.2031C35.1038 38.3506 35.1038 38.4613 35.1407 38.6089C35.3621 39.9002 36.6165 40.7488 37.871 40.5274C38.9778 40.343 39.8264 39.3468 39.8264 38.2031C39.8633 30.4182 39.8633 22.5965 39.8633 14.7748ZM34.8825 27.688C29.3113 27.688 23.7402 27.688 18.1691 27.688C17.9846 27.688 17.9108 27.6511 17.9108 27.4298C17.9108 26.5443 17.9108 25.6957 17.9108 24.8102C17.9108 24.5889 17.9846 24.552 18.1691 24.552C20.9731 24.552 23.7402 24.552 26.5442 24.552H34.8825C35.1776 24.552 35.1776 24.552 35.1776 24.8471C35.1776 25.6957 35.1776 26.5812 35.1776 27.4298C35.1407 27.6511 35.0669 27.688 34.8825 27.688ZM39.8633 14.7748C39.8633 14.5904 39.8264 14.4059 39.7895 14.2583C39.5312 13.0777 38.3875 12.266 37.17 12.4504C35.9893 12.5611 35.1038 13.5942 35.1038 14.7748V20.6411C35.1038 20.9363 35.1038 20.9363 34.8087 20.9363H18.1691C17.9477 20.9363 17.8739 20.8625 17.8739 20.6411C17.8739 18.6857 17.8739 16.7303 17.8739 14.7748C17.9108 13.5204 16.8778 12.4504 15.6234 12.4136C15.5865 12.4136 15.5496 12.4136 15.5127 12.4136C14.2213 12.3767 13.1514 13.4097 13.1514 14.701C13.1514 14.7379 13.1514 14.7748 13.1514 14.7748V38.24C13.1514 38.6458 13.2621 39.0516 13.4466 39.3837C14 40.3061 15.1068 40.7857 16.1399 40.4905C17.1729 40.2323 17.8739 39.3099 17.8739 38.24C17.8739 35.9894 17.8739 33.7388 17.8739 31.4882C17.8739 31.193 17.8739 31.193 18.1691 31.193H34.8087C35.1038 31.193 35.1038 31.193 35.1038 31.4882V38.2031C35.1038 38.3506 35.1038 38.4613 35.1407 38.6089C35.3621 39.9002 36.6165 40.7488 37.871 40.5274C38.9778 40.343 39.8264 39.3468 39.8264 38.2031C39.8633 30.4182 39.8633 22.5965 39.8633 14.7748ZM34.8825 27.688C29.3113 27.688 23.7402 27.688 18.1691 27.688C17.9846 27.688 17.9108 27.6511 17.9108 27.4298C17.9108 26.5443 17.9108 25.6957 17.9108 24.8102C17.9108 24.5889 17.9846 24.552 18.1691 24.552C20.9731 24.552 23.7402 24.552 26.5442 24.552H34.8825C35.1776 24.552 35.1776 24.552 35.1776 24.8471C35.1776 25.6957 35.1776 26.5812 35.1776 27.4298C35.1407 27.6511 35.0669 27.688 34.8825 27.688ZM52.9978 25.5481C52.4813 10.9009 40.1584 -0.499648 25.5481 0.0168805C10.9377 0.533409 -0.499699 12.8563 0.016829 27.4667C0.533357 41.8557 12.4504 53.1824 26.8394 52.9979C41.4867 52.8134 53.1823 40.7488 52.9978 26.1015C52.9978 25.9171 52.9978 25.7326 52.9978 25.5481ZM26.5073 49.4191C13.8524 49.4191 3.59563 39.1623 3.59563 26.5074C3.59563 13.8525 13.8524 3.59568 26.5073 3.59568C39.1623 3.59568 49.419 13.8525 49.419 26.5074C49.3822 39.1623 39.1623 49.4191 26.5073 49.4191ZM39.8633 14.7748C39.8633 14.5904 39.8264 14.4059 39.7895 14.2583C39.5312 13.0777 38.3875 12.266 37.17 12.4504C35.9893 12.5611 35.1038 13.5942 35.1038 14.7748V20.6411C35.1038 20.9363 35.1038 20.9363 34.8087 20.9363H18.1691C17.9477 20.9363 17.8739 20.8625 17.8739 20.6411C17.8739 18.6857 17.8739 16.7303 17.8739 14.7748C17.9108 13.5204 16.8778 12.4504 15.6234 12.4136C15.5865 12.4136 15.5496 12.4136 15.5127 12.4136C14.2213 12.3767 13.1514 13.4097 13.1514 14.701C13.1514 14.7379 13.1514 14.7748 13.1514 14.7748V38.24C13.1514 38.6458 13.2621 39.0516 13.4466 39.3837C14 40.3061 15.1068 40.7857 16.1399 40.4905C17.1729 40.2323 17.8739 39.3099 17.8739 38.24C17.8739 35.9894 17.8739 33.7388 17.8739 31.4882C17.8739 31.193 17.8739 31.193 18.1691 31.193H34.8087C35.1038 31.193 35.1038 31.193 35.1038 31.4882V38.2031C35.1038 38.3506 35.1038 38.4613 35.1407 38.6089C35.3621 39.9002 36.6165 40.7488 37.871 40.5274C38.9778 40.343 39.8264 39.3468 39.8264 38.2031C39.8633 30.4182 39.8633 22.5965 39.8633 14.7748ZM34.8825 27.688C29.3113 27.688 23.7402 27.688 18.1691 27.688C17.9846 27.688 17.9108 27.6511 17.9108 27.4298C17.9108 26.5443 17.9108 25.6957 17.9108 24.8102C17.9108 24.5889 17.9846 24.552 18.1691 24.552C20.9731 24.552 23.7402 24.552 26.5442 24.552H34.8825C35.1776 24.552 35.1776 24.552 35.1776 24.8471C35.1776 25.6957 35.1776 26.5812 35.1776 27.4298C35.1407 27.6511 35.0669 27.688 34.8825 27.688ZM39.8633 14.7748C39.8633 14.5904 39.8264 14.4059 39.7895 14.2583C39.5312 13.0777 38.3875 12.266 37.17 12.4504C35.9893 12.5611 35.1038 13.5942 35.1038 14.7748V20.6411C35.1038 20.9363 35.1038 20.9363 34.8087 20.9363H18.1691C17.9477 20.9363 17.8739 20.8625 17.8739 20.6411C17.8739 18.6857 17.8739 16.7303 17.8739 14.7748C17.9108 13.5204 16.8778 12.4504 15.6234 12.4136C15.5865 12.4136 15.5496 12.4136 15.5127 12.4136C14.2213 12.3767 13.1514 13.4097 13.1514 14.701C13.1514 14.7379 13.1514 14.7748 13.1514 14.7748V38.24C13.1514 38.6458 13.2621 39.0516 13.4466 39.3837C14 40.3061 15.1068 40.7857 16.1399 40.4905C17.1729 40.2323 17.8739 39.3099 17.8739 38.24C17.8739 35.9894 17.8739 33.7388 17.8739 31.4882C17.8739 31.193 17.8739 31.193 18.1691 31.193H34.8087C35.1038 31.193 35.1038 31.193 35.1038 31.4882V38.2031C35.1038 38.3506 35.1038 38.4613 35.1407 38.6089C35.3621 39.9002 36.6165 40.7488 37.871 40.5274C38.9778 40.343 39.8264 39.3468 39.8264 38.2031C39.8633 30.4182 39.8633 22.5965 39.8633 14.7748ZM34.8825 27.688C29.3113 27.688 23.7402 27.688 18.1691 27.688C17.9846 27.688 17.9108 27.6511 17.9108 27.4298C17.9108 26.5443 17.9108 25.6957 17.9108 24.8102C17.9108 24.5889 17.9846 24.552 18.1691 24.552C20.9731 24.552 23.7402 24.552 26.5442 24.552H34.8825C35.1776 24.552 35.1776 24.552 35.1776 24.8471C35.1776 25.6957 35.1776 26.5812 35.1776 27.4298C35.1407 27.6511 35.0669 27.688 34.8825 27.688Z" fill="white"/>
</svg>
